<svg width="24" height="25" viewBox="0 0 24 25" fill="none" xmlns="http://www.w3.org/2000/svg">
<path d="M23.7666 10.1145H22.8V10.0643H12V14.9012H18.7818C17.7924 17.7168 15.1338 19.738 12 19.738C8.0238 19.738 4.8 16.4895 4.8 12.4828C4.8 8.47603 8.0238 5.22748 12 5.22748C13.8354 5.22748 15.5052 5.92519 16.7766 7.06488L20.1708 3.64462C18.0276 1.63188 15.1608 0.390625 12 0.390625C5.373 0.390625 0 5.80488 0 12.4828C0 19.1606 5.373 24.5749 12 24.5749C18.627 24.5749 24 19.1606 24 12.4828C24 11.672 23.9172 10.8805 23.7666 10.1145Z" fill="#FFC107"/>
<path d="M1.3836 6.85447L5.3262 9.76807C6.393 7.10659 8.9766 5.22748 12 5.22748C13.8354 5.22748 15.5052 5.92519 16.7766 7.06488L20.1708 3.64462C18.0276 1.63188 15.1608 0.390625 12 0.390625C7.3908 0.390625 3.3936 3.0128 1.3836 6.85447Z" fill="#FF3D00"/>
<path d="M12 24.5749C15.0996 24.5749 17.916 23.3796 20.0454 21.4358L16.3314 18.2688C15.0861 19.2231 13.5645 19.7393 12 19.738C8.8788 19.738 6.2286 17.7326 5.2302 14.9338L1.317 17.972C3.303 21.888 7.3362 24.5749 12 24.5749Z" fill="#4CAF50"/>
<path d="M23.7666 10.1145H22.8V10.0643H12V14.9012H18.7818C18.3085 16.2412 17.456 17.4122 16.3296 18.2694L16.3314 18.2688L20.0454 21.4358C19.7826 21.6764 24 18.5288 24 12.4828C24 11.672 23.9172 10.8805 23.7666 10.1145Z" fill="#1976D2"/>
</svg>
